<?xml version="1.0" encoding="UTF-8" standalone="no"?>
<!DOCTYPE svg PUBLIC "-//W3C//DTD SVG 1.1//EN"
 "http://www.w3.org/Graphics/SVG/1.1/DTD/svg11.dtd">
<!-- Generated by graphviz version 10.0.1 (0)
 -->
<!-- Title: G Pages: 1 -->
<svg width="625pt" height="668pt"
 viewBox="0.00 0.00 624.99 668.38" xmlns="http://www.w3.org/2000/svg" xmlns:xlink="http://www.w3.org/1999/xlink">
<g id="graph0" class="graph" transform="scale(1 1) rotate(0) translate(4 664.38)">
<title>G</title><style>.edge>path:hover{stroke-width:8}</style>
<polygon fill="white" stroke="none" points="-4,4 -4,-664.38 620.99,-664.38 620.99,4 -4,4"/>
<!-- app_py -->
<g id="node1" class="node">
<title>app_py</title><style>.edge>path:hover{stroke-width:8}</style>
<ellipse fill="#995252" stroke="black" cx="470.2" cy="-18" rx="29.98" ry="18"/>
<text text-anchor="middle" x="470.2" y="-14.88" font-family="Helvetica,sans-Serif" font-size="10.00" fill="#ffffff">app.py</text>
</g>
<!-- flask -->
<g id="node2" class="node">
<title>flask</title><style>.edge>path:hover{stroke-width:8}</style>
<polygon fill="blue" stroke="black" points="267.2,-145 213.2,-145 213.2,-109 267.2,-109 267.2,-145"/>
<text text-anchor="middle" x="240.2" y="-123.88" font-family="Helvetica,sans-Serif" font-size="10.00" fill="white">flask</text>
</g>
<!-- flask&#45;&gt;app_py -->
<g id="edge1" class="edge">
<title>flask&#45;&gt;app_py</title><style>.edge>path:hover{stroke-width:8}</style>
<path fill="none" stroke="black" d="M267.31,-125.01C325.17,-122.15 456.62,-111.44 470.2,-73"/>
<path fill="none" stroke="black" d="M470.2,-72C472.92,-64.31 473.75,-55.58 473.68,-47.46"/>
<polygon fill="blue" stroke="black" points="477.19,-47.5 473.13,-37.71 470.2,-47.89 477.19,-47.5"/>
</g>
<!-- flask_app -->
<g id="node3" class="node">
<title>flask_app</title><style>.edge>path:hover{stroke-width:8}</style>
<polygon fill="blue" stroke="black" points="290.32,-588.38 230.07,-588.38 230.07,-552.38 290.32,-552.38 290.32,-588.38"/>
<text text-anchor="middle" x="260.2" y="-567.25" font-family="Helvetica,sans-Serif" font-size="10.00" fill="white">flask.app</text>
</g>
<!-- flask_app&#45;&gt;flask -->
<g id="edge2" class="edge">
<title>flask_app&#45;&gt;flask</title><style>.edge>path:hover{stroke-width:8}</style>
<path fill="none" stroke="black" d="M290.59,-557.28C334.95,-537.39 412.2,-493.28 412.2,-427.38 412.2,-427.38 412.2,-427.38 412.2,-353.38 412.2,-307.51 425.01,-297.48 436.2,-253 442.14,-229.37 461.88,-221.38 450.2,-200"/>
<path fill="none" stroke="black" d="M450.2,-198C414.78,-140.63 329.28,-129.02 278.98,-127.39"/>
<polygon fill="blue" stroke="black" points="279.18,-123.89 269.12,-127.2 279.05,-130.89 279.18,-123.89"/>
</g>
<!-- flask_ctx -->
<g id="node6" class="node">
<title>flask_ctx</title><style>.edge>path:hover{stroke-width:8}</style>
<polygon fill="blue" stroke="black" points="193.82,-516.38 136.57,-516.38 136.57,-480.38 193.82,-480.38 193.82,-516.38"/>
<text text-anchor="middle" x="165.2" y="-495.25" font-family="Helvetica,sans-Serif" font-size="10.00" fill="white">flask.ctx</text>
</g>
<!-- flask_app&#45;&gt;flask_ctx -->
<g id="edge3" class="edge">
<title>flask_app&#45;&gt;flask_ctx</title><style>.edge>path:hover{stroke-width:8}</style>
<path fill="none" stroke="black" d="M227.74,-545.46C218.14,-538.39 207.62,-530.64 198,-523.55"/>
<polygon fill="blue" stroke="black" points="225.37,-548.06 235.5,-551.17 229.52,-542.43 225.37,-548.06"/>
<polygon fill="blue" stroke="black" points="200.09,-520.74 189.96,-517.62 195.93,-526.37 200.09,-520.74"/>
</g>
<!-- flask_globals -->
<g id="node7" class="node">
<title>flask_globals</title><style>.edge>path:hover{stroke-width:8}</style>
<polygon fill="blue" stroke="black" points="231.95,-444.38 154.45,-444.38 154.45,-408.38 231.95,-408.38 231.95,-444.38"/>
<text text-anchor="middle" x="193.2" y="-423.25" font-family="Helvetica,sans-Serif" font-size="10.00" fill="white">flask.globals</text>
</g>
<!-- flask_app&#45;&gt;flask_globals -->
<g id="edge4" class="edge">
<title>flask_app&#45;&gt;flask_globals</title><style>.edge>path:hover{stroke-width:8}</style>
<path fill="none" stroke="black" d="M247.16,-541.75C235.31,-516.63 217.92,-479.78 206.11,-454.75"/>
<polygon fill="blue" stroke="black" points="243.9,-543.05 251.34,-550.6 250.23,-540.06 243.9,-543.05"/>
<polygon fill="blue" stroke="black" points="209.35,-453.41 201.92,-445.86 203.02,-456.39 209.35,-453.41"/>
</g>
<!-- flask_templating -->
<g id="node11" class="node">
<title>flask_templating</title><style>.edge>path:hover{stroke-width:8}</style>
<polygon fill="blue" stroke="black" points="370.82,-217 301.57,-217 301.57,-181 370.82,-181 370.82,-217"/>
<text text-anchor="middle" x="336.2" y="-202.25" font-family="Helvetica,sans-Serif" font-size="10.00" fill="white">flask.</text>
<text text-anchor="middle" x="336.2" y="-189.5" font-family="Helvetica,sans-Serif" font-size="10.00" fill="white">templating</text>
</g>
<!-- flask_app&#45;&gt;flask_templating -->
<g id="edge5" class="edge">
<title>flask_app&#45;&gt;flask_templating</title><style>.edge>path:hover{stroke-width:8}</style>
<path fill="none" stroke="black" d="M283.9,-543.73C306.2,-516.85 336.2,-472.34 336.2,-427.38 336.2,-427.38 336.2,-427.38 336.2,-353.38 336.2,-309.89 336.2,-259.46 336.2,-228.65"/>
<polygon fill="blue" stroke="black" points="281.52,-541.13 277.67,-551 286.84,-545.69 281.52,-541.13"/>
<polygon fill="blue" stroke="black" points="339.7,-228.99 336.2,-218.99 332.7,-228.99 339.7,-228.99"/>
</g>
<!-- flask_blueprints -->
<g id="node4" class="node">
<title>flask_blueprints</title><style>.edge>path:hover{stroke-width:8}</style>
<polygon fill="blue" stroke="black" points="140.57,-217 75.82,-217 75.82,-181 140.57,-181 140.57,-217"/>
<text text-anchor="middle" x="108.2" y="-202.25" font-family="Helvetica,sans-Serif" font-size="10.00" fill="white">flask.</text>
<text text-anchor="middle" x="108.2" y="-189.5" font-family="Helvetica,sans-Serif" font-size="10.00" fill="white">blueprints</text>
</g>
<!-- flask_blueprints&#45;&gt;flask -->
<g id="edge6" class="edge">
<title>flask_blueprints&#45;&gt;flask</title><style>.edge>path:hover{stroke-width:8}</style>
<path fill="none" stroke="black" d="M140.83,-180.7C159.59,-170.74 183.25,-158.2 202.77,-147.85"/>
<polygon fill="blue" stroke="black" points="204.31,-150.99 211.5,-143.22 201.03,-144.81 204.31,-150.99"/>
</g>
<!-- flask_config -->
<g id="node5" class="node">
<title>flask_config</title><style>.edge>path:hover{stroke-width:8}</style>
<ellipse fill="#53b653" stroke="black" cx="240.2" cy="-199" rx="43.75" ry="18"/>
<text text-anchor="middle" x="240.2" y="-195.88" font-family="Helvetica,sans-Serif" font-size="10.00" fill="#000000">flask.config</text>
</g>
<!-- flask_config&#45;&gt;flask -->
<g id="edge7" class="edge">
<title>flask_config&#45;&gt;flask</title><style>.edge>path:hover{stroke-width:8}</style>
<path fill="none" stroke="black" d="M240.2,-180.7C240.2,-173.41 240.2,-164.73 240.2,-156.54"/>
<polygon fill="#53b653" stroke="black" points="243.7,-156.62 240.2,-146.62 236.7,-156.62 243.7,-156.62"/>
</g>
<!-- flask_ctx&#45;&gt;flask -->
<g id="edge8" class="edge">
<title>flask_ctx&#45;&gt;flask</title><style>.edge>path:hover{stroke-width:8}</style>
<path fill="none" stroke="black" d="M139.24,-480.06C108.92,-458.45 59.46,-418.66 32.2,-372.38 10.16,-334.97 13.39,-320.79 8.2,-277.69"/>
<path fill="none" stroke="black" d="M8.2,-275.69C2.6,-242.52 -6.54,-230.24 8.2,-200"/>
<path fill="none" stroke="black" d="M8.2,-198C25.38,-162.74 140.64,-141.7 201.97,-132.88"/>
<polygon fill="blue" stroke="black" points="202.19,-136.38 211.61,-131.54 201.22,-129.45 202.19,-136.38"/>
</g>
<!-- flask_ctx&#45;&gt;flask_globals -->
<g id="edge10" class="edge">
<title>flask_ctx&#45;&gt;flask_globals</title><style>.edge>path:hover{stroke-width:8}</style>
<path fill="none" stroke="black" d="M176.36,-469.47C178.26,-464.72 180.23,-459.79 182.13,-455.04"/>
<polygon fill="blue" stroke="black" points="173.15,-468.08 172.68,-478.67 179.64,-470.68 173.15,-468.08"/>
<polygon fill="blue" stroke="black" points="185.33,-456.47 185.79,-445.89 178.83,-453.87 185.33,-456.47"/>
</g>
<!-- flask_globals&#45;&gt;flask -->
<g id="edge11" class="edge">
<title>flask_globals&#45;&gt;flask</title><style>.edge>path:hover{stroke-width:8}</style>
<path fill="none" stroke="black" d="M154.02,-420.17C117.52,-412.88 65.85,-395.64 46.2,-355.38"/>
<path fill="none" stroke="black" d="M46.2,-353.38C29.69,-319.55 12.7,-315.06 8.2,-277.69"/>
</g>
<!-- flask_globals&#45;&gt;flask_blueprints -->
<g id="edge13" class="edge">
<title>flask_globals&#45;&gt;flask_blueprints</title><style>.edge>path:hover{stroke-width:8}</style>
<path fill="none" stroke="black" d="M46.2,-353.38C31.37,-320.67 92.14,-332.98 107.2,-300.38 117.58,-277.89 116.75,-249.44 113.95,-228.57"/>
<polygon fill="blue" stroke="black" points="117.41,-228.08 112.38,-218.76 110.5,-229.19 117.41,-228.08"/>
</g>
<!-- flask_helpers -->
<g id="node8" class="node">
<title>flask_helpers</title><style>.edge>path:hover{stroke-width:8}</style>
<polygon fill="blue" stroke="black" points="270.32,-294.69 192.07,-294.69 192.07,-258.69 270.32,-258.69 270.32,-294.69"/>
<text text-anchor="middle" x="231.2" y="-273.56" font-family="Helvetica,sans-Serif" font-size="10.00" fill="white">flask.helpers</text>
</g>
<!-- flask_globals&#45;&gt;flask_helpers -->
<g id="edge15" class="edge">
<title>flask_globals&#45;&gt;flask_helpers</title><style>.edge>path:hover{stroke-width:8}</style>
<path fill="none" stroke="black" d="M197.63,-408.15C204.1,-383.02 216.18,-336.05 223.95,-305.86"/>
<polygon fill="blue" stroke="black" points="227.31,-306.83 226.42,-296.27 220.53,-305.09 227.31,-306.83"/>
</g>
<!-- flask_json -->
<g id="node9" class="node">
<title>flask_json</title><style>.edge>path:hover{stroke-width:8}</style>
<polygon fill="blue" stroke="black" points="98.45,-294.69 35.95,-294.69 35.95,-258.69 98.45,-258.69 98.45,-294.69"/>
<text text-anchor="middle" x="67.2" y="-273.56" font-family="Helvetica,sans-Serif" font-size="10.00" fill="white">flask.json</text>
</g>
<!-- flask_globals&#45;&gt;flask_json -->
<g id="edge16" class="edge">
<title>flask_globals&#45;&gt;flask_json</title><style>.edge>path:hover{stroke-width:8}</style>
<path fill="none" stroke="black" d="M46.2,-353.38C39.22,-337.99 43.92,-319.76 50.62,-305.05"/>
<polygon fill="blue" stroke="black" points="53.61,-306.9 55.04,-296.4 47.37,-303.72 53.61,-306.9"/>
</g>
<!-- flask_globals&#45;&gt;flask_templating -->
<g id="edge17" class="edge">
<title>flask_globals&#45;&gt;flask_templating</title><style>.edge>path:hover{stroke-width:8}</style>
<path fill="none" stroke="black" d="M205.93,-407.9C223.17,-384.01 254.59,-339.67 279.2,-300.38 294.42,-276.08 310.43,-247.59 321.59,-227.18"/>
<polygon fill="blue" stroke="black" points="324.53,-229.1 326.23,-218.64 318.38,-225.76 324.53,-229.1"/>
</g>
<!-- flask_wrappers -->
<g id="node12" class="node">
<title>flask_wrappers</title><style>.edge>path:hover{stroke-width:8}</style>
<polygon fill="blue" stroke="black" points="193.82,-372.38 106.57,-372.38 106.57,-336.38 193.82,-336.38 193.82,-372.38"/>
<text text-anchor="middle" x="150.2" y="-351.25" font-family="Helvetica,sans-Serif" font-size="10.00" fill="white">flask.wrappers</text>
</g>
<!-- flask_globals&#45;&gt;flask_wrappers -->
<g id="edge18" class="edge">
<title>flask_globals&#45;&gt;flask_wrappers</title><style>.edge>path:hover{stroke-width:8}</style>
<path fill="none" stroke="black" d="M176.58,-398.32C173.33,-393.03 169.92,-387.48 166.67,-382.19"/>
<polygon fill="blue" stroke="black" points="173.56,-400.09 181.78,-406.78 179.52,-396.43 173.56,-400.09"/>
<polygon fill="blue" stroke="black" points="169.71,-380.46 161.5,-373.77 163.75,-384.12 169.71,-380.46"/>
</g>
<!-- flask_helpers&#45;&gt;flask -->
<g id="edge19" class="edge">
<title>flask_helpers&#45;&gt;flask</title><style>.edge>path:hover{stroke-width:8}</style>
<path fill="none" stroke="black" d="M202.21,-258.44C183.33,-244.72 163.07,-223.9 168.2,-200"/>
</g>
<!-- flask_helpers&#45;&gt;flask_app -->
<g id="edge20" class="edge">
<title>flask_helpers&#45;&gt;flask_app</title><style>.edge>path:hover{stroke-width:8}</style>
<path fill="none" stroke="black" d="M232.43,-295.14C234.71,-321.22 240.83,-371.87 256.11,-414.68"/>
<polygon fill="blue" stroke="black" points="252.82,-415.87 259.66,-423.96 259.36,-413.37 252.82,-415.87"/>
</g>
<!-- flask_helpers&#45;&gt;flask_blueprints -->
<g id="edge21" class="edge">
<title>flask_helpers&#45;&gt;flask_blueprints</title><style>.edge>path:hover{stroke-width:8}</style>
<path fill="none" stroke="black" d="M202.98,-258.32C186.1,-247.94 164.44,-234.61 146.09,-223.32"/>
<polygon fill="blue" stroke="black" points="147.92,-220.34 137.57,-218.08 144.26,-226.3 147.92,-220.34"/>
</g>
<!-- flask_helpers&#45;&gt;flask_templating -->
<g id="edge22" class="edge">
<title>flask_helpers&#45;&gt;flask_templating</title><style>.edge>path:hover{stroke-width:8}</style>
<path fill="none" stroke="black" d="M255.29,-258.32C269.43,-248.13 287.5,-235.1 302.98,-223.95"/>
<polygon fill="blue" stroke="black" points="304.93,-226.86 310.99,-218.17 300.83,-221.18 304.93,-226.86"/>
</g>
<!-- flask_json&#45;&gt;flask -->
<g id="edge24" class="edge">
<title>flask_json&#45;&gt;flask</title><style>.edge>path:hover{stroke-width:8}</style>
<path fill="none" stroke="black" d="M38.79,-258.48C18.8,-244 -2.61,-222.17 8.2,-200"/>
</g>
<!-- flask_signals -->
<g id="node10" class="node">
<title>flask_signals</title><style>.edge>path:hover{stroke-width:8}</style>
<ellipse fill="#22e722" stroke="black" cx="260.2" cy="-642.38" rx="46.96" ry="18"/>
<text text-anchor="middle" x="260.2" y="-639.25" font-family="Helvetica,sans-Serif" font-size="10.00" fill="#000000">flask.signals</text>
</g>
<!-- flask_signals&#45;&gt;flask -->
<g id="edge26" class="edge">
<title>flask_signals&#45;&gt;flask</title><style>.edge>path:hover{stroke-width:8}</style>
<path fill="none" stroke="black" d="M450.2,-275.69C435.43,-245.46 467.87,-228.62 450.2,-200"/>
</g>
<!-- flask_signals&#45;&gt;flask_app -->
<g id="edge27" class="edge">
<title>flask_signals&#45;&gt;flask_app</title><style>.edge>path:hover{stroke-width:8}</style>
<path fill="none" stroke="black" d="M260.2,-624.07C260.2,-616.78 260.2,-608.1 260.2,-599.91"/>
<polygon fill="#22e722" stroke="black" points="263.7,-599.99 260.2,-589.99 256.7,-599.99 263.7,-599.99"/>
</g>
<!-- flask_signals&#45;&gt;flask_ctx -->
<g id="edge28" class="edge">
<title>flask_signals&#45;&gt;flask_ctx</title><style>.edge>path:hover{stroke-width:8}</style>
<path fill="none" stroke="black" d="M247.59,-624.89C239.79,-614.54 229.69,-600.84 221.2,-588.38 207.28,-567.94 192.42,-544.22 181.5,-526.41"/>
<polygon fill="#22e722" stroke="black" points="184.55,-524.69 176.36,-517.97 178.57,-528.33 184.55,-524.69"/>
</g>
<!-- flask_signals&#45;&gt;flask_helpers -->
<g id="edge29" class="edge">
<title>flask_signals&#45;&gt;flask_helpers</title><style>.edge>path:hover{stroke-width:8}</style>
<path fill="none" stroke="black" d="M303.03,-634.66C339.1,-626.49 388.51,-608.81 412.2,-571.38"/>
<path fill="none" stroke="black" d="M412.2,-569.38C474.75,-470.53 335,-351.8 266.38,-301.77"/>
<polygon fill="#22e722" stroke="black" points="268.59,-299.05 258.42,-296.06 264.51,-304.74 268.59,-299.05"/>
</g>
<!-- flask_signals&#45;&gt;flask_templating -->
<g id="edge30" class="edge">
<title>flask_signals&#45;&gt;flask_templating</title><style>.edge>path:hover{stroke-width:8}</style>
<path fill="none" stroke="black" d="M412.2,-569.38C499.81,-472.34 490.89,-401.93 450.2,-277.69"/>
<path fill="none" stroke="black" d="M450.2,-275.69C436.54,-247.74 407.02,-228.57 381.45,-216.53"/>
<polygon fill="#22e722" stroke="black" points="383.09,-213.43 372.53,-212.56 380.25,-219.82 383.09,-213.43"/>
</g>
<!-- flask_templating&#45;&gt;flask -->
<g id="edge31" class="edge">
<title>flask_templating&#45;&gt;flask</title><style>.edge>path:hover{stroke-width:8}</style>
<path fill="none" stroke="black" d="M312.47,-180.7C300.58,-172.03 286,-161.4 273.06,-151.96"/>
<polygon fill="blue" stroke="black" points="275.35,-149.3 265.21,-146.24 271.23,-154.96 275.35,-149.3"/>
</g>
<!-- flask_wrappers&#45;&gt;flask -->
<g id="edge33" class="edge">
<title>flask_wrappers&#45;&gt;flask</title><style>.edge>path:hover{stroke-width:8}</style>
<path fill="none" stroke="black" d="M164.2,-275.69C161.76,-242.09 161.13,-232.94 168.2,-200"/>
<path fill="none" stroke="black" d="M168.2,-198C172.51,-177.91 188.11,-161.48 203.7,-149.6"/>
<polygon fill="blue" stroke="black" points="205.43,-152.66 211.55,-144.01 201.37,-146.96 205.43,-152.66"/>
</g>
<!-- flask_wrappers&#45;&gt;flask_app -->
<g id="edge34" class="edge">
<title>flask_wrappers&#45;&gt;flask_app</title><style>.edge>path:hover{stroke-width:8}</style>
<path fill="none" stroke="black" d="M194.08,-369.03C216.37,-378.37 241.55,-393.17 255.13,-415.39"/>
<polygon fill="blue" stroke="black" points="251.86,-416.69 259.51,-424.03 258.11,-413.53 251.86,-416.69"/>
<path fill="none" stroke="black" d="M260.2,-427.38C274.73,-470.35 268.37,-524.9 263.65,-552.19"/>
</g>
<!-- flask_wrappers&#45;&gt;flask_blueprints -->
<g id="edge35" class="edge">
<title>flask_wrappers&#45;&gt;flask_blueprints</title><style>.edge>path:hover{stroke-width:8}</style>
<path fill="none" stroke="black" d="M155.98,-336.08C160.45,-320.83 165.67,-297.95 164.2,-277.69"/>
<path fill="none" stroke="black" d="M164.2,-275.69C162.79,-256.25 150.54,-238.49 137.86,-225.08"/>
<polygon fill="blue" stroke="black" points="140.65,-222.91 131.07,-218.37 135.72,-227.89 140.65,-222.91"/>
</g>
<!-- flask_wrappers&#45;&gt;flask_ctx -->
<g id="edge36" class="edge">
<title>flask_wrappers&#45;&gt;flask_ctx</title><style>.edge>path:hover{stroke-width:8}</style>
<path fill="none" stroke="black" d="M146.85,-372.59C143.9,-390.62 140.7,-419.71 145.2,-444.38 146.73,-452.79 149.53,-461.61 152.56,-469.58"/>
<polygon fill="blue" stroke="black" points="149.29,-470.83 156.32,-478.76 155.77,-468.18 149.29,-470.83"/>
</g>
<!-- flask_wrappers&#45;&gt;flask_helpers -->
<g id="edge38" class="edge">
<title>flask_wrappers&#45;&gt;flask_helpers</title><style>.edge>path:hover{stroke-width:8}</style>
<path fill="none" stroke="black" d="M176.74,-328.58C185.63,-320.27 195.54,-311.01 204.45,-302.69"/>
<polygon fill="blue" stroke="black" points="174.6,-325.78 169.68,-335.17 179.38,-330.9 174.6,-325.78"/>
<polygon fill="blue" stroke="black" points="206.59,-305.48 211.5,-296.09 201.81,-300.36 206.59,-305.48"/>
</g>
<!-- flask_wrappers&#45;&gt;flask_json -->
<g id="edge39" class="edge">
<title>flask_wrappers&#45;&gt;flask_json</title><style>.edge>path:hover{stroke-width:8}</style>
<path fill="none" stroke="black" d="M123,-328.58C113.89,-320.27 103.74,-311.01 94.61,-302.69"/>
<polygon fill="blue" stroke="black" points="120.5,-331.03 130.25,-335.18 125.21,-325.86 120.5,-331.03"/>
<polygon fill="blue" stroke="black" points="97.11,-300.23 87.36,-296.08 92.39,-305.4 97.11,-300.23"/>
</g>
<!-- psycopg2 -->
<g id="node13" class="node">
<title>psycopg2</title><style>.edge>path:hover{stroke-width:8}</style>
<polygon fill="blue" stroke="black" points="501.45,-145 438.95,-145 438.95,-109 501.45,-109 501.45,-145"/>
<text text-anchor="middle" x="470.2" y="-123.88" font-family="Helvetica,sans-Serif" font-size="10.00" fill="white">psycopg2</text>
</g>
<!-- psycopg2&#45;&gt;app_py -->
<g id="edge40" class="edge">
<title>psycopg2&#45;&gt;app_py</title><style>.edge>path:hover{stroke-width:8}</style>
<path fill="none" stroke="black" d="M467.35,-108.8C466.28,-98.19 466.15,-84.45 470.2,-73"/>
</g>
<!-- psycopg2__psycopg -->
<g id="node14" class="node">
<title>psycopg2__psycopg</title><style>.edge>path:hover{stroke-width:8}</style>
<ellipse fill="#4747c2" stroke="black" cx="538.2" cy="-276.69" rx="46.32" ry="23.69"/>
<text text-anchor="middle" x="538.2" y="-279.94" font-family="Helvetica,sans-Serif" font-size="10.00" fill="#ffffff">psycopg2.</text>
<text text-anchor="middle" x="538.2" y="-267.19" font-family="Helvetica,sans-Serif" font-size="10.00" fill="#ffffff">_psycopg</text>
</g>
<!-- psycopg2__psycopg&#45;&gt;psycopg2 -->
<g id="edge41" class="edge">
<title>psycopg2__psycopg&#45;&gt;psycopg2</title><style>.edge>path:hover{stroke-width:8}</style>
<path fill="none" stroke="black" d="M525.93,-253.64C520.03,-242.73 512.99,-229.3 507.2,-217 497.68,-196.78 488.03,-173.45 480.97,-155.74"/>
<polygon fill="#4747c2" stroke="black" points="484.31,-154.69 477.39,-146.67 477.8,-157.26 484.31,-154.69"/>
</g>
<!-- psycopg2_extensions -->
<g id="node15" class="node">
<title>psycopg2_extensions</title><style>.edge>path:hover{stroke-width:8}</style>
<polygon fill="blue" stroke="black" points="585.82,-217 516.57,-217 516.57,-181 585.82,-181 585.82,-217"/>
<text text-anchor="middle" x="551.2" y="-202.25" font-family="Helvetica,sans-Serif" font-size="10.00" fill="white">psycopg2.</text>
<text text-anchor="middle" x="551.2" y="-189.5" font-family="Helvetica,sans-Serif" font-size="10.00" fill="white">extensions</text>
</g>
<!-- psycopg2__psycopg&#45;&gt;psycopg2_extensions -->
<g id="edge42" class="edge">
<title>psycopg2__psycopg&#45;&gt;psycopg2_extensions</title><style>.edge>path:hover{stroke-width:8}</style>
<path fill="none" stroke="black" d="M542.1,-252.98C543.42,-245.26 544.92,-236.53 546.32,-228.41"/>
<polygon fill="#4747c2" stroke="black" points="549.75,-229.1 547.99,-218.65 542.85,-227.91 549.75,-229.1"/>
</g>
<!-- psycopg2_extensions&#45;&gt;psycopg2 -->
<g id="edge43" class="edge">
<title>psycopg2_extensions&#45;&gt;psycopg2</title><style>.edge>path:hover{stroke-width:8}</style>
<path fill="none" stroke="black" d="M531.18,-180.7C521.44,-172.28 509.56,-162.02 498.88,-152.79"/>
<polygon fill="blue" stroke="black" points="501.27,-150.23 491.42,-146.34 496.69,-155.52 501.27,-150.23"/>
</g>
<!-- psycopg2_sql -->
<g id="node16" class="node">
<title>psycopg2_sql</title><style>.edge>path:hover{stroke-width:8}</style>
<ellipse fill="#4949ac" stroke="black" cx="568.2" cy="-127" rx="48.8" ry="18"/>
<text text-anchor="middle" x="568.2" y="-123.88" font-family="Helvetica,sans-Serif" font-size="10.00" fill="#ffffff">psycopg2.sql</text>
</g>
<!-- psycopg2_extensions&#45;&gt;psycopg2_sql -->
<g id="edge44" class="edge">
<title>psycopg2_extensions&#45;&gt;psycopg2_sql</title><style>.edge>path:hover{stroke-width:8}</style>
<path fill="none" stroke="black" d="M555.4,-180.7C557.19,-173.32 559.33,-164.52 561.34,-156.25"/>
<polygon fill="blue" stroke="black" points="564.73,-157.12 563.69,-146.58 557.93,-155.47 564.73,-157.12"/>
</g>
<!-- psycopg2_sql&#45;&gt;app_py -->
<g id="edge45" class="edge">
<title>psycopg2_sql&#45;&gt;app_py</title><style>.edge>path:hover{stroke-width:8}</style>
<path fill="none" stroke="black" d="M532.43,-114.46C502.42,-103.69 465.19,-87.18 470.2,-73"/>
</g>
</g>
</svg>
